<svg xmlns="http://www.w3.org/2000/svg" viewBox="0 0 64 64">
  <defs>
    <linearGradient id="bg" x1="10" x2="54" y1="8" y2="56" gradientUnits="userSpaceOnUse">
      <stop stop-color="#ff8a4c"/>
      <stop offset="0.55" stop-color="#ffcf6b"/>
      <stop offset="1" stop-color="#7cc7ff"/>
    </linearGradient>
  </defs>
  <rect width="64" height="64" rx="18" fill="url(#bg)"/>
  <circle cx="47" cy="17" r="6" fill="#fff7df" opacity="0.9"/>
  <path fill="#fff" d="M16 43V22h6.4l.5 2.5A8.2 8.2 0 0 1 29 21.3c3 0 5.2 1.1 6.5 3.3a9.4 9.4 0 0 1 7-3.3c5 0 7.5 3.2 7.5 9.5V43h-7.6V31.4c0-2.4-.9-3.6-2.8-3.6-2.1 0-3.1 1.4-3.1 4.2v11h-7.6V31.4c0-2.4-.9-3.6-2.7-3.6-2.1 0-3.2 1.4-3.2 4.2v11H16Z"/>
</svg>
